<svg width="24" height="24" viewBox="0 0 24 24" fill="none" xmlns="http://www.w3.org/2000/svg">
<path d="M12.1837 4.90835C13.8753 4.90733 15.5128 5.49599 16.8059 6.57003L20.4278 3.1736C17.6088 0.613945 13.7294 -0.487555 9.95911 0.201133C6.18884 0.889822 2.96875 3.28813 1.26953 6.67311L5.35285 9.77233C6.32947 6.87238 9.08097 4.91314 12.1837 4.90835Z" fill="#D94F3D"/>
<path d="M4.98438 11.9976C4.9854 11.2411 5.10994 10.4897 5.35322 9.77207L1.2699 6.67285C-0.423302 10.0269 -0.423302 13.9684 1.2699 17.3224L5.35322 14.2232C5.10994 13.5056 4.9854 12.7542 4.98438 11.9976Z" fill="#F2C042"/>
<path d="M23.8695 9.81641H12.2393V14.7246H18.8297C18.4377 16.1123 17.5394 17.3089 16.3071 18.085L20.3588 21.1608C22.9479 18.8725 24.4693 15.1516 23.8695 9.81641Z" fill="#5085ED"/>
<path d="M16.3052 18.0853C15.053 18.791 13.6255 19.1382 12.1837 19.0876C9.08097 19.0828 6.32947 17.1236 5.35285 14.2236L1.26953 17.3229C3.32677 21.4065 7.55441 23.9912 12.1837 23.9958C15.1701 24.0756 18.0811 23.0656 20.357 21.1599L16.3052 18.0853Z" fill="#57A75C"/>
</svg>
