<svg width="24" height="24" viewBox="0 0 24 24" fill="none" xmlns="http://www.w3.org/2000/svg">
<path d="M21.913 18.1203C21.3708 19.2692 21.1122 19.7822 20.4133 20.7977C19.4402 22.2152 18.069 23.9822 16.3687 23.9972C14.8581 24.0107 14.4694 23.0567 12.4197 23.0672C10.37 23.0777 9.94062 24.0137 8.42997 24.0002C6.7297 23.9852 5.4306 22.3907 4.45589 20.9717C1.73546 17.0058 1.45025 12.3528 3.12858 9.8793C4.32112 8.11981 6.20316 7.09232 7.97395 7.09232C9.77608 7.09232 10.9075 8.03731 12.3978 8.03731C13.8426 8.03731 14.7233 7.09082 16.8075 7.09082C18.3824 7.09082 20.0513 7.91132 21.2392 9.32881C17.345 11.3733 17.9781 16.6968 21.913 18.1203Z" fill="#191919"/>
<path d="M16.0806 4.04848C16.9362 2.99848 17.585 1.51499 17.3484 0C15.9521 0.0914994 14.3192 0.941994 13.3649 2.05049C12.4999 3.05698 11.7853 4.54947 12.0627 5.99996C13.5874 6.04496 15.1639 5.17347 16.0806 4.04848Z" fill="#191919"/>
</svg>
